Coordinates
version=1
nRows=8
nColumns=40
inDegrees=yes

Units are S.I. units (second, meters, Newtons, ...)
If the header above contains a line with 'inDegrees', this indicates whether rotational values are in degrees (yes) or radians (no).

endheader
time	pelvis_tilt	pelvis_list	pelvis_rotation	pelvis_tx	pelvis_ty	pelvis_tz	hip_flexion_r	hip_adduction_r	hip_rotation_r	knee_angle_r	knee_angle_r_beta	ankle_angle_r	subtalar_angle_r	mtp_angle_r	hip_flexion_l	hip_adduction_l	hip_rotation_l	knee_angle_l	knee_angle_l_beta	ankle_angle_l	subtalar_angle_l	mtp_angle_l	lumbar_extension	lumbar_bending	lumbar_rotation	arm_flex_r	arm_add_r	arm_rot_r	elbow_flex_r	pro_sup_r	wrist_flex_r	wrist_dev_r	arm_flex_l	arm_add_l	arm_rot_l	elbow_flex_l	pro_sup_l	wrist_flex_l	wrist_dev_l
      0.00000000	     12.18220454	     -5.94543523	     -0.41784594	     -0.39960673	      1.20266379	      0.02186007	     48.21291080	      0.77870782	     -0.69810557	     99.43473395	      1.73546350	      1.05119219	    -22.67182221	      0.00000000	     33.46771554	     -8.70987251	      9.55316091	     50.01560615	      0.87293700	      6.10496912	    -28.74956725	      0.00000000	    -73.10355301	      4.01583572	     10.30401064	     78.15400383	     -5.27716655	     -0.71117952	     45.98374327	     13.17702698	      0.00000000	      0.00000000	     89.85063382	      2.56050240	     23.82613740	     19.05644170	     85.02738807	      0.00000000	      0.00000000
      0.00833333	     12.14020747	     -6.22466385	     -0.32453812	     -0.39939423	      1.20253111	      0.02199317	     49.40068598	      0.74984510	     -0.99322605	    100.60266480	      1.75584774	      1.48204772	    -22.81156656	      0.00000000	     32.35168603	     -9.05314108	      9.78780321	     48.73144955	      0.85052424	      5.57100707	    -28.43274774	      0.00000000	    -73.06869071	      4.26344678	     10.56463170	     78.14717764	     -5.26598651	     -0.66674548	     45.96562541	     13.16815983	      0.00000000	      0.00000000	     89.84721914	      2.56177657	     23.83905849	     18.92415371	     85.02821206	      0.00000000	      0.00000000
      0.01666667	     11.99393548	     -6.63092056	     -0.29675149	     -0.39947267	      1.20235547	      0.02237527	     50.81132483	      0.73131036	     -1.51894400	    101.76333211	      1.77610520	      1.67981804	    -22.67309109	      0.00000000	     31.24988862	     -9.60418536	      9.68961600	     47.14281504	      0.82279734	      5.28296278	    -28.37802317	      0.00000000	    -72.96167977	      4.50666402	     10.92503193	     78.21148606	     -5.26701894	     -0.53061724	     45.91054510	     13.16909360	      0.00000000	      0.00000000	     89.84609556	      2.50164743	     23.83933040	     18.86021970	     85.02143232	      0.00000000	      0.00000000
      0.02500000	     11.96835635	     -6.90386878	     -0.24480748	     -0.39943568	      1.20245507	      0.02261455	     51.93606494	      0.86227354	     -1.69637154	    102.71727856	      1.79275471	      2.09610596	    -22.56208336	      0.00000000	     30.24121149	     -9.99447176	      9.71305998	     46.00428069	      0.80292617	      4.45214620	    -28.03045899	      0.00000000	    -72.96998604	      4.71105152	     11.15049331	     78.23455320	     -5.22835696	     -0.37042413	     45.87679391	     13.14159905	      0.00000000	      0.00000000	     89.84577125	      2.44159777	     23.85118687	     18.84116136	     85.06535250	      0.00000000	      0.00000000
      0.03333333	     11.93550094	     -7.19903012	     -0.14911480	     -0.39914739	      1.20202196	      0.02279586	     53.08220830	      0.82658871	     -2.03099723	    103.67168097	      1.80941217	      2.60232453	    -22.50392347	      0.00000000	     29.21913783	    -10.42003309	      9.55796449	     44.78135595	      0.78158210	      3.98615782	    -27.91877010	      0.00000000	    -72.93145067	      4.94833782	     11.41087714	     78.23352926	     -5.23479753	     -0.24460140	     45.80889449	     13.13912672	      0.00000000	      0.00000000	     89.84105657	      2.45788710	     23.85515387	     18.73876256	     85.06241609	      0.00000000	      0.00000000
      0.04166667	     11.84810815	     -7.41236374	     -0.17657176	     -0.39927231	      1.20235145	      0.02293532	     54.29504770	      0.82422229	     -2.19358626	    104.51894977	      1.82419980	      3.23617689	    -22.27514515	      0.00000000	     28.26628375	    -10.76982177	      9.43481526	     43.71843427	      0.76303062	      3.29532071	    -27.67765985	      0.00000000	    -72.89415003	      5.07773662	     11.65743282	     78.26691746	     -5.29090116	     -0.12606035	     45.87797085	     13.11795361	      0.00000000	      0.00000000	     89.84069558	      2.45508216	     23.82949795	     18.74871944	     85.04242304	      0.00000000	      0.00000000
      0.05000000	     11.78563482	     -7.65990428	     -0.19181620	     -0.39930406	      1.20221943	      0.02312919	     55.52242988	      0.83280496	     -2.39532113	    105.34388270	      1.83859760	      3.68551775	    -22.04876545	      0.00000000	     27.37689476	    -11.13378712	      9.32917054	     42.80556738	      0.74709809	      2.81442832	    -27.52597868	      0.00000000	    -72.85679809	      5.22567401	     11.90796106	     78.27777805	     -5.28441502	     -0.02079619	     45.89077515	     13.10065907	      0.00000000	      0.00000000	     89.83631909	      2.43626366	     23.80332326	     18.69789543	     85.02874139	      0.00000000	      0.00000000
      0.05833333	     11.76345501	     -7.72445958	     -0.37132319	     -0.39922212	      1.20209246	      0.02340690	     56.67505359	      0.78955160	     -2.32998339	    106.12455410	      1.85222289	      4.59784671	    -21.00050887	      0.00000000	     26.41634898	    -11.41450327	      8.90326768	     42.03092906	      0.73357810	      2.08955335	    -27.55579901	      0.00000000	    -72.83644179	      5.14545150	     12.04679426	     78.25367669	     -5.37318509	      0.22464192	     45.96084628	     12.97999597	      0.00000000	      0.00000000	     89.83212884	      2.45487547	     23.75200225	     18.61136298	     85.01330678	      0.00000000	      0.00000000
